<svg width="32" height="32" viewBox="0 0 32 32" fill="none" xmlns="http://www.w3.org/2000/svg">
<path d="M4.45111 8.83208L5.40133 11.3927C5.56137 11.8228 6.17151 11.8228 6.32155 11.3927L7.27177 8.83208C7.54183 8.1019 8.11197 7.53177 8.83214 7.27171L11.3927 6.32149C11.8228 6.16145 11.8228 5.56131 11.3927 5.40127L8.83214 4.45105C8.10197 4.18098 7.53183 3.61085 7.27177 2.89068L6.32155 0.330083C6.16151 -0.100018 5.55137 -0.100018 5.40133 0.330083L4.45111 2.89068C4.18105 3.62085 3.61091 4.19099 2.89074 4.45105L0.330144 5.40127C-0.0999569 5.56131 -0.0999569 6.16145 0.330144 6.32149L2.89074 7.27171C3.62092 7.54177 4.19105 8.11191 4.45111 8.83208Z" fill="black"/>
<path d="M10.2524 8.71205L10.8226 9.95234C10.9826 10.3024 10.9826 10.7025 10.8226 11.0626L10.2524 12.3029C10.1524 12.5129 10.3725 12.723 10.5825 12.633L11.8228 12.0628C12.1729 11.9028 12.573 11.9028 12.9331 12.0628L14.1733 12.633C14.3834 12.733 14.5934 12.5129 14.5034 12.3029L13.9333 11.0626C13.7732 10.7125 13.7732 10.3124 13.9333 9.95234L14.5034 8.71205C14.6034 8.502 14.3834 8.29195 14.1733 8.38197L12.9331 8.9521C12.583 9.11214 12.1829 9.11214 11.8228 8.9521L10.5825 8.38197C10.3725 8.28195 10.1624 8.502 10.2524 8.71205Z" fill="black"/>
<path d="M29.0167 32.0075H5.21117C3.57078 32.0075 2.23047 30.6672 2.23047 29.0268V14.4134C2.23047 13.9733 2.59055 13.6032 3.04066 13.6032C3.49076 13.6032 3.85085 13.9633 3.85085 14.4134V29.0268C3.85085 29.787 4.47099 30.3971 5.22117 30.3971H29.0268C29.7869 30.3971 30.3971 29.787 30.3971 29.0268V5.25124C30.3971 4.49107 29.7769 3.88092 29.0268 3.88092H14.1433C13.6932 3.88092 13.3331 3.52084 13.3331 3.07073C13.3331 2.62063 13.6932 2.26054 14.1433 2.26054H29.0268C30.6671 2.26054 32.0074 3.60086 32.0074 5.24124V29.0068C32.0074 30.6472 30.6671 31.9875 29.0268 31.9875L29.0167 32.0075Z" fill="black"/>
<path d="M17.7243 25.546L16.9441 28.3667H14.3735L17.7343 17.3641H20.9951L24.4259 28.3667H21.7453L20.8951 25.546H17.7343H17.7243ZM20.525 23.6956L19.8348 21.355C19.6448 20.7049 19.4547 19.8747 19.2847 19.2345H19.2547C19.0946 19.8847 18.9246 20.7149 18.7546 21.355L18.0944 23.6856H20.535L20.525 23.6956Z" fill="black"/>
<path d="M28.3762 17.3741V28.3767H25.8862V17.3741H28.3762Z" fill="black"/>
</svg>
