<svg width="33" height="33" viewBox="0 0 33 33" fill="none" xmlns="http://www.w3.org/2000/svg">
<path d="M3.38853 13.6317C3.83835 13.6317 4.20821 13.992 4.20821 14.4424V21.3183H11.3454C12.6249 21.3183 13.7145 22.2291 13.8344 23.4802C14.7841 23.3601 15.3539 23.0998 15.7637 22.7195C16.2535 22.2691 16.5834 21.6386 16.9932 20.8979C17.4031 20.1573 17.9029 19.3066 18.8125 18.686C19.5422 18.1756 20.6318 17.9354 21.9013 17.8653V17.425C21.9013 16.0638 22.9609 14.9628 24.3204 14.9628H30.7079V5.24449C30.7079 4.49385 30.0981 3.87332 29.3384 3.87332H14.4942C14.0444 3.87332 13.6745 3.51301 13.6745 3.06262C13.6745 2.61223 14.0344 2.25192 14.4942 2.25192H29.3384C30.9977 2.25192 32.3472 3.60308 32.3472 5.2545V29.0149C32.3472 30.6763 30.9977 32.0175 29.3384 32.0175H5.57767C3.91832 32.0175 2.56885 30.6663 2.56885 29.0149V14.4524C2.56885 14.002 2.92871 13.6417 3.38853 13.6417V13.6317ZM12.1351 23.7204C12.1351 23.26 11.7952 22.8796 11.3354 22.8796H4.20821V26.9031H11.3354C11.7952 26.9031 12.1351 26.6028 12.1351 26.1324V23.7104V23.7204ZM24.3204 16.6743C23.8605 16.6743 23.4807 16.9646 23.4807 17.425V19.847C23.4807 20.3074 23.8505 20.6177 24.3104 20.6177H30.6979V16.6643H24.3104L24.3204 16.6743ZM5.57767 30.3861H29.3284C30.0881 30.3861 30.6979 29.7756 30.6979 29.0149V22.3292H24.3104C22.9509 22.3292 21.8913 21.2182 21.8913 19.8571V19.5468C20.9317 19.5968 20.182 19.777 19.7521 20.0772C19.1924 20.4676 18.8425 21.0181 18.4526 21.7187C18.0928 22.3692 17.6929 23.1399 17.0232 23.8104C16.9532 23.8905 16.4134 24.481 15.6937 24.8213C15.014 25.1516 13.8744 25.2217 13.8744 25.2217V26.1425C13.8744 27.5036 12.6949 28.6146 11.3354 28.6146H4.19821V29.0249C4.19821 29.7756 4.80797 30.3961 5.56768 30.3961L5.57767 30.3861Z" fill="black"/>
<path d="M0.669786 5.41464L3.23879 4.46382C3.9685 4.19359 4.53828 3.6231 4.80817 2.90248L5.7578 0.340279C5.91774 -0.0900906 6.5275 -0.0900906 6.67744 0.340279L7.62707 2.90248C7.89697 3.63311 8.46674 4.2036 9.19646 4.46382L11.7655 5.41464C12.1953 5.57478 12.1953 6.1853 11.7655 6.33543L9.19646 7.28625C8.46674 7.55648 7.89697 8.12697 7.62707 8.84759L6.67744 11.4098C6.5175 11.8402 5.90774 11.8402 5.7578 11.4098L4.80817 8.84759C4.53828 8.11696 3.9685 7.54647 3.23879 7.28625L0.669786 6.33543C0.239954 6.17529 0.239954 5.56477 0.669786 5.41464Z" fill="black"/>
<path d="M17.4133 16.6643C17.1634 16.6643 16.9135 16.5742 16.7036 16.4041L15.1142 15.0729H14.1046C13.185 15.0729 12.4253 14.3223 12.4253 13.4015V9.48813C12.4253 8.56734 13.175 7.8167 14.1046 7.8167H20.782C21.7017 7.8167 22.4614 8.56734 22.4614 9.48813V13.4015C22.4614 14.3223 21.7117 15.0729 20.782 15.0729H19.7124L18.1231 16.4041C17.9132 16.5742 17.6632 16.6643 17.4133 16.6643ZM14.1146 8.82756C13.7448 8.82756 13.4449 9.12782 13.4449 9.49814V13.4115C13.4449 13.7818 13.7448 14.0821 14.1146 14.0821H15.3042C15.4241 14.0821 15.5341 14.1221 15.624 14.2022L17.3534 15.6534C17.3534 15.6534 17.4433 15.6835 17.4733 15.6534L19.2026 14.2022C19.2926 14.1221 19.4126 14.0821 19.5225 14.0821H20.772C21.1419 14.0821 21.4418 13.7818 21.4418 13.4115V9.49814C21.4418 9.12782 21.1419 8.82756 20.772 8.82756H14.0946H14.1146Z" fill="black"/>
<path d="M20.342 11.1387H14.5542C14.2744 11.1387 14.0544 10.9087 14.0544 10.6387C14.0544 10.3687 14.2844 10.1387 14.5542 10.1387H20.342C20.6219 10.1387 20.8418 10.3687 20.8418 10.6387C20.8418 10.9087 20.6119 11.1387 20.342 11.1387Z" fill="black"/>
<path d="M20.342 12.7601H14.5542C14.2744 12.7601 14.0544 12.5301 14.0544 12.2601C14.0544 11.9901 14.2844 11.7601 14.5542 11.7601H20.342C20.6219 11.7601 20.8418 11.9901 20.8418 12.2601C20.8418 12.5301 20.6119 12.7601 20.342 12.7601Z" fill="black"/>
</svg>
