<svg width="32" height="32" viewBox="0 0 32 32" fill="none" xmlns="http://www.w3.org/2000/svg">
<path d="M4.4425 8.83208L5.3925 11.3927C5.5525 11.8228 6.1625 11.8228 6.3125 11.3927L7.2625 8.83208C7.5325 8.1019 8.1025 7.53177 8.8225 7.27171L11.3825 6.32149C11.8125 6.16145 11.8125 5.56131 11.3825 5.40127L8.8225 4.45105C8.0925 4.18098 7.5225 3.61085 7.2625 2.89068L6.3125 0.330083C6.1525 -0.100018 5.5425 -0.100018 5.3925 0.330083L4.4425 2.89068C4.1725 3.62085 3.6025 4.19099 2.8825 4.45105L0.3225 5.40127C-0.1075 5.56131 -0.1075 6.16145 0.3225 6.32149L2.8825 7.27171C3.6125 7.54177 4.1825 8.11191 4.4425 8.83208Z" fill="black"/>
<path d="M10.2524 8.71205L10.8224 9.95234C10.9824 10.3024 10.9824 10.7025 10.8224 11.0626L10.2524 12.3029C10.1524 12.5129 10.3724 12.723 10.5824 12.633L11.8224 12.0628C12.1724 11.9028 12.5724 11.9028 12.9324 12.0628L14.1724 12.633C14.3824 12.733 14.5924 12.5129 14.5024 12.3029L13.9324 11.0626C13.7724 10.7125 13.7724 10.3124 13.9324 9.95234L14.5024 8.71205C14.6024 8.502 14.3824 8.29195 14.1724 8.38197L12.9324 8.9521C12.5824 9.11214 12.1824 9.11214 11.8224 8.9521L10.5824 8.38197C10.3724 8.28195 10.1624 8.502 10.2524 8.71205Z" fill="black"/>
<path d="M29.0124 32.0075H5.21242C3.57242 32.0075 2.23242 30.6672 2.23242 29.0268V14.4134C2.23242 13.9733 2.59242 13.6032 3.04242 13.6032C3.49242 13.6032 3.85242 13.9633 3.85242 14.4134V29.0268C3.85242 29.787 4.47242 30.3971 5.22242 30.3971H29.0224C29.7824 30.3971 30.3924 29.787 30.3924 29.0268V5.25124C30.3924 4.49107 29.7724 3.88092 29.0224 3.88092H14.1424C13.6924 3.88092 13.3324 3.52084 13.3324 3.07073C13.3324 2.62063 13.6924 2.26054 14.1424 2.26054H29.0224C30.6624 2.26054 32.0024 3.60086 32.0024 5.24124V29.0068C32.0024 30.6472 30.6624 31.9875 29.0224 31.9875L29.0124 32.0075Z" fill="black"/>
<path d="M27.7824 14.2933C27.3024 13.8132 26.3924 13.7732 26.0524 13.7732C25.4524 13.7732 24.6624 13.9233 24.2824 14.3134C23.7124 14.8935 23.4924 15.9337 23.3924 16.4338L23.3724 16.5439C23.2324 17.6041 23.1524 18.6844 23.0624 19.7246C23.0324 20.0647 23.0124 20.3948 22.9824 20.7349H20.4124C20.2724 20.7349 20.1624 20.8449 20.1624 20.9849V21.9651C20.1624 22.1052 20.2724 22.2152 20.4124 22.2152H22.7824C22.7024 23.4755 22.5124 26.0861 22.4224 26.4662L22.4024 26.5562C22.2724 27.1664 22.1924 27.3264 21.8424 27.2764C21.4124 27.2264 21.4224 26.5262 21.4224 26.5262C21.4224 26.4562 21.3924 26.3962 21.3524 26.3462C21.3024 26.2962 21.2424 26.2662 21.1724 26.2662H19.5924C19.5224 26.2662 19.4424 26.3062 19.4024 26.3662C19.3524 26.4262 19.3324 26.4962 19.3524 26.5762C19.3624 26.6362 19.6324 27.9565 20.3324 28.6567C20.6624 28.9868 21.2824 29.1768 22.0324 29.1768H22.0624C22.6724 29.1768 23.4524 29.0268 23.8324 28.6367C24.4024 28.0566 24.6224 27.0163 24.7224 26.5162L24.7424 26.4062C24.8824 25.3459 24.9624 24.2657 25.0524 23.2254C25.0824 22.8854 25.1024 22.5553 25.1324 22.2152H27.2624C27.4024 22.2152 27.5124 22.1052 27.5124 21.9651V20.9849C27.5124 20.8449 27.4024 20.7349 27.2624 20.7349H25.3324C25.4124 19.4746 25.6024 16.8639 25.6924 16.4839L25.7124 16.3938C25.8424 15.7837 25.9224 15.6337 26.2724 15.6737C26.7024 15.7237 26.6924 16.4238 26.6924 16.4338C26.6924 16.5039 26.7224 16.5639 26.7624 16.6139C26.8124 16.6639 26.8724 16.6939 26.9424 16.6939H28.5224C28.5924 16.6939 28.6724 16.6539 28.7124 16.5939C28.7624 16.5339 28.7824 16.4639 28.7624 16.3838C28.7524 16.3238 28.4824 15.0035 27.7924 14.3033L27.7824 14.2933Z" fill="black"/>
</svg>
